<svg xmlns="http://www.w3.org/2000/svg" viewBox="0 0 528 116" role="img" aria-labelledby="title desc">
  <title id="title">Dyme logo</title>
  <desc id="desc">Gold Dyme symbol and wordmark on a transparent background.</desc>
  <g fill="#f4cd62">
    <path d="M30 14h72L68 62c-13 18-11 42 5 57 12 12 29 17 45 14l-6-15c-10 2-21-1-29-9-10-10-11-27-2-39l34-47H30Z"/>
    <path d="M104 14c18 1 33 8 47 23 8 9 14 19 18 31l15-6c-5-14-13-27-24-38-17-17-36-26-56-26v16Z"/>
    <path d="M168 16h46l-16-16-30 16Z"/>
    <path d="M148 79 93 23 81 35l55 56 12-12Z"/>
    <path d="M120 92 147 116 159 77 120 92Z"/>
    <path d="M188 22c17 18 23 43 17 66-7 24-26 42-49 48l4-16c17-5 31-18 36-36 4-16 0-33-12-46l4-16Z"/>
    <path d="M287 14c13 0 24 3 32 10 9 8 13 18 13 31s-4 24-13 31c-8 7-19 10-32 10h-47V14h47Zm-2 67c9 0 16-2 22-7 5-5 8-11 8-19s-3-15-8-19c-6-5-13-7-22-7h-30v52h30Z"/>
    <path d="M343 14h19l27 36 27-36h19l-37 49v33h-16V63l-39-49Z"/>
    <path d="M446 14h24l23 62 23-62h24v82h-16V38l-22 58h-18l-22-58v58h-16V14Z"/>
  </g>
</svg>
