<?xml version="1.0" encoding="utf-8"?>
<!-- Generator: Adobe Illustrator 15.0.1, SVG Export Plug-In . SVG Version: 6.00 Build 0)  -->
<!DOCTYPE svg PUBLIC "-//W3C//DTD SVG 1.1//EN" "http://www.w3.org/Graphics/SVG/1.1/DTD/svg11.dtd">
<svg version="1.1" id="Layer_1" xmlns="http://www.w3.org/2000/svg" xmlns:xlink="http://www.w3.org/1999/xlink" x="0px" y="0px"
	 width="303.114px" height="303.114px" viewBox="0 0 303.114 303.114" enable-background="new 0 0 303.114 303.114"
	 xml:space="preserve">
<g>
	<path fill="#2B2867" d="M301.557,151.557c0,82.843-67.16,150-150,150c-82.843,0-150-67.157-150-150s67.157-150,150-150
		C234.397,1.557,301.557,68.714,301.557,151.557"/>
	<path fill="none" stroke="#FFFFFF" stroke-width="3.1139" d="M301.557,151.557c0,82.843-67.16,150-150,150
		c-82.843,0-150-67.157-150-150s67.157-150,150-150C234.397,1.557,301.557,68.714,301.557,151.557z"/>
	<path fill="#2B2867" d="M295.791,151.557c0,79.656-64.578,144.232-144.233,144.232c-79.659,0-144.232-64.576-144.232-144.232
		S71.898,7.329,151.557,7.329C231.213,7.329,295.791,71.901,295.791,151.557"/>
	<circle fill="none" stroke="#FFFFFF" stroke-width="3.1139" cx="151.558" cy="151.557" r="144.233"/>
	<path fill="#2B2867" d="M245.979,151.557c0,52.151-42.274,94.426-94.422,94.426c-52.146,0-94.426-42.275-94.426-94.426
		c0-52.149,42.28-94.423,94.426-94.423C203.705,57.134,245.979,99.408,245.979,151.557"/>
	<path fill="none" stroke="#FFFFFF" stroke-width="3.1139" d="M245.979,151.557c0,52.151-42.274,94.426-94.422,94.426
		c-52.146,0-94.426-42.275-94.426-94.426c0-52.149,42.28-94.423,94.426-94.423C203.705,57.134,245.979,99.408,245.979,151.557z"/>
	<path fill="#FFFFFF" d="M32.84,173.328l10.061-11.78c1.412-1.662,2.326-3.031,2.736-4.116c0.289-0.787,0.359-1.569,0.209-2.351
		l0.735-0.143l2.701,14.05l-0.736,0.143c-0.249-0.875-0.503-1.418-0.749-1.638c-0.247-0.22-0.52-0.308-0.813-0.25
		c-0.556,0.107-1.485,0.919-2.791,2.434l-6.591,7.687l1.027,0.833l7.363-1.412c1.405-0.27,2.267-0.52,2.581-0.743
		c0.315-0.227,0.553-0.589,0.709-1.086c0.159-0.5,0.143-1.25-0.05-2.241l0.739-0.144l2.619,13.614l-0.74,0.14l-0.169-0.896
		c-0.154-0.782-0.413-1.386-0.784-1.808c-0.252-0.31-0.623-0.516-1.109-0.614c-0.347-0.086-1.195,0.004-2.547,0.264l-17.754,3.41
		c-1.379,0.267-2.228,0.504-2.548,0.72c-0.312,0.21-0.56,0.563-0.733,1.059c-0.172,0.493-0.188,1.118-0.039,1.875l0.168,0.896
		l-0.734,0.143l-2.584-13.435l0.738-0.144c0.177,0.919,0.444,1.589,0.8,2.015c0.252,0.307,0.616,0.521,1.088,0.634
		c0.367,0.1,1.229,0.013,2.599-0.248l8.399-1.614l-10.028-8.456c-1.395-1.176-2.431-1.699-3.106-1.569
		c-0.508,0.097-0.851,0.46-1.029,1.086c-0.091,0.319-0.044,1.058,0.137,2.221l-0.737,0.143l-2.021-10.531l0.736-0.14
		c0.246,0.93,0.556,1.639,0.935,2.122c0.372,0.483,1.532,1.545,3.467,3.183L32.84,173.328z"/>
	<path fill="#FFFFFF" d="M22.165,143.495l11.154,0.902l0.044-0.543c0.143-1.738-0.304-3.041-1.33-3.913
		c-1.024-0.867-2.597-1.5-4.707-1.886l0.063-0.765l14.343,1.162l-0.063,0.766c-1.574,0.038-2.88,0.273-3.919,0.711
		c-1.039,0.439-1.758,0.988-2.158,1.644c-0.397,0.66-0.65,1.643-0.756,2.948l7.716,0.626c1.509,0.122,2.438,0.133,2.784,0.032
		c0.346-0.099,0.642-0.319,0.886-0.648c0.247-0.333,0.397-0.89,0.46-1.672l0.134-1.64c0.21-2.558-0.218-4.655-1.28-6.294
		c-1.058-1.638-2.774-2.893-5.145-3.759l0.064-0.75l8.605,1.938l-1.919,23.68l-0.747-0.06l0.075-0.913
		c0.062-0.797-0.028-1.445-0.27-1.952c-0.161-0.367-0.461-0.663-0.906-0.89c-0.311-0.174-1.153-0.317-2.525-0.428l-18.024-1.46
		c-1.237-0.101-2-0.126-2.291-0.084c-0.48,0.097-0.865,0.317-1.148,0.661c-0.419,0.479-0.667,1.164-0.737,2.054l-0.073,0.909
		l-0.75-0.059l1.858-22.93l8.1,0.657l-0.061,0.766c-2.011,0.232-3.476,0.662-4.395,1.301c-0.92,0.641-1.633,1.589-2.145,2.844
		c-0.301,0.737-0.537,2.142-0.706,4.217L22.165,143.495z"/>
	<path fill="#FFFFFF" d="M53.009,116.102l0.722,0.203l-3.926,13.821l-0.724-0.207l0.253-0.875c0.216-0.767,0.252-1.423,0.117-1.966
		c-0.088-0.389-0.323-0.738-0.713-1.049c-0.277-0.229-1.072-0.532-2.397-0.909l-17.385-4.938c-1.351-0.387-2.215-0.556-2.597-0.506
		c-0.377,0.046-0.753,0.252-1.133,0.612c-0.375,0.367-0.668,0.917-0.878,1.655l-0.25,0.879l-0.723-0.203l3.926-13.821l0.72,0.207
		l-0.247,0.875c-0.217,0.768-0.257,1.423-0.117,1.97c0.088,0.388,0.323,0.743,0.707,1.064c0.273,0.231,1.068,0.537,2.397,0.909
		l17.386,4.942c1.351,0.384,2.218,0.55,2.597,0.498c0.38-0.057,0.759-0.263,1.137-0.626c0.375-0.364,0.668-0.917,0.881-1.656
		L53.009,116.102z"/>
	<path fill="#FFFFFF" d="M36.341,86.984l8.342,3.797l-0.363,0.746c-2.239-0.65-4.32-0.59-6.252,0.182
		c-1.923,0.771-3.276,1.96-4.055,3.565c-0.6,1.239-0.744,2.38-0.43,3.426c0.309,1.046,0.899,1.776,1.762,2.196
		c0.546,0.267,1.096,0.373,1.645,0.323c0.744-0.078,1.583-0.367,2.517-0.876c0.677-0.375,2.028-1.351,4.051-2.924
		c2.823-2.205,5.114-3.504,6.867-3.899c1.751-0.387,3.436-0.184,5.065,0.605c2.067,1.003,3.456,2.668,4.166,5.003
		c0.709,2.331,0.462,4.739-0.74,7.221c-0.376,0.775-0.813,1.475-1.306,2.091c-0.493,0.614-1.215,1.341-2.158,2.174
		c-0.526,0.467-0.879,0.889-1.062,1.262c-0.153,0.317-0.193,0.714-0.121,1.183c0.073,0.47,0.303,0.937,0.696,1.395l-0.327,0.676
		l-9.337-4.525l0.325-0.677c2.888,0.74,5.389,0.68,7.507-0.177c2.118-0.859,3.604-2.171,4.459-3.932
		c0.659-1.359,0.816-2.625,0.467-3.794c-0.35-1.169-1.02-1.992-2.005-2.467c-0.584-0.283-1.223-0.403-1.919-0.358
		c-0.699,0.044-1.445,0.267-2.244,0.657c-0.8,0.396-1.982,1.202-3.55,2.425c-2.199,1.715-3.924,2.876-5.176,3.482
		c-1.259,0.61-2.495,0.943-3.714,1.007c-1.214,0.065-2.4-0.187-3.553-0.743c-1.971-0.956-3.299-2.491-3.982-4.61
		c-0.686-2.118-0.496-4.279,0.569-6.48c0.39-0.802,0.862-1.532,1.423-2.19c0.422-0.504,1.031-1.07,1.825-1.696
		c0.792-0.629,1.268-1.108,1.427-1.439c0.151-0.313,0.178-0.608,0.07-0.885c-0.109-0.276-0.493-0.676-1.155-1.193L36.341,86.984z"/>
	<path fill="#FFFFFF" d="M49.116,72.111l8.701,7.03l0.347-0.426c1.093-1.352,1.462-2.68,1.103-3.979
		c-0.359-1.296-1.299-2.698-2.825-4.207l0.486-0.602l11.191,9.044l-0.486,0.6c-1.322-0.86-2.532-1.403-3.638-1.626
		c-1.105-0.223-2.008-0.176-2.711,0.143c-0.696,0.32-1.458,0.989-2.285,2.011l6.021,4.863c1.179,0.949,1.938,1.483,2.282,1.595
		c0.343,0.113,0.709,0.101,1.099-0.036c0.389-0.136,0.829-0.514,1.319-1.118l1.032-1.277c1.615-1.999,2.444-3.973,2.493-5.924
		c0.047-1.948-0.665-3.951-2.13-6.006l0.47-0.585l6.017,6.454L62.676,96.54l-0.585-0.474l0.576-0.709
		c0.499-0.619,0.792-1.208,0.88-1.761c0.073-0.394-0.01-0.81-0.251-1.246c-0.156-0.317-0.772-0.91-1.846-1.779L47.39,79.208
		c-0.965-0.779-1.579-1.236-1.846-1.358c-0.449-0.19-0.893-0.226-1.322-0.104c-0.616,0.161-1.205,0.59-1.764,1.283l-0.574,0.709
		l-0.583-0.47l14.457-17.894l6.322,5.113l-0.483,0.596c-1.792-0.943-3.247-1.413-4.366-1.403c-1.119,0.008-2.243,0.39-3.375,1.147
		c-0.664,0.432-1.652,1.458-2.958,3.076L49.116,72.111z"/>
	<path fill="#FFFFFF" d="M79.894,59.952l4.541,6.22c0.875,1.204,1.5,1.906,1.878,2.109c0.373,0.204,0.813,0.264,1.319,0.176
		c0.506-0.086,1.269-0.499,2.282-1.237l0.445,0.602l-11.364,8.297l-0.439-0.607c1.023-0.75,1.649-1.351,1.875-1.808
		c0.223-0.457,0.299-0.896,0.223-1.306c-0.073-0.413-0.549-1.222-1.424-2.421l-10.515-14.41c-0.875-1.2-1.501-1.902-1.878-2.102
		c-0.372-0.207-0.813-0.266-1.319-0.176c-0.509,0.083-1.268,0.496-2.285,1.235l-0.442-0.603l10.313-7.531
		c2.688-1.961,4.786-3.21,6.302-3.747c1.515-0.535,3.031-0.592,4.546-0.166c1.516,0.422,2.761,1.309,3.741,2.65
		c1.194,1.636,1.595,3.42,1.194,5.349c-0.256,1.229-0.939,2.504-2.048,3.831l10.82,3.617c1.411,0.462,2.349,0.706,2.822,0.731
		c0.692,0.01,1.345-0.182,1.958-0.579l0.444,0.605l-6.991,5.103L81.35,58.891L79.894,59.952z M71.949,49.065l7.1,9.728l0.928-0.684
		c1.52-1.109,2.552-2.075,3.102-2.904c0.549-0.826,0.776-1.758,0.68-2.8c-0.104-1.039-0.576-2.145-1.429-3.311
		c-1.231-1.694-2.54-2.654-3.922-2.883c-1.379-0.229-2.952,0.296-4.709,1.576L71.949,49.065z"/>
	<path fill="#FFFFFF" d="M102.73,28.953l13.667-3.817l0.2,0.728l-0.683,0.188c-1.028,0.287-1.705,0.59-2.028,0.912
		c-0.325,0.324-0.516,0.696-0.572,1.118c-0.057,0.426,0.127,1.392,0.546,2.896l3.62,12.965c0.655,2.371,1.275,3.89,1.846,4.557
		c0.572,0.668,1.342,1.142,2.304,1.418c0.959,0.279,2.065,0.247,3.314-0.103c1.431-0.4,2.565-1.063,3.389-1.989
		c0.829-0.925,1.336-2.024,1.522-3.297c0.187-1.272-0.113-3.313-0.899-6.125l-3.014-10.796c-0.33-1.182-0.686-1.995-1.08-2.434
		c-0.389-0.44-0.795-0.704-1.228-0.794c-0.67-0.136-1.539-0.053-2.605,0.245l-0.203-0.724l9.155-2.555l0.203,0.724l-0.546,0.153
		c-0.741,0.206-1.318,0.53-1.729,0.965c-0.41,0.436-0.646,0.986-0.699,1.649c-0.052,0.462,0.07,1.235,0.374,2.314l2.807,10.054
		c0.87,3.111,1.287,5.412,1.262,6.906c-0.023,1.493-0.669,3.041-1.936,4.645c-1.265,1.6-3.267,2.784-6.014,3.55
		c-2.291,0.64-4.146,0.828-5.569,0.566c-1.934-0.36-3.436-1.09-4.501-2.196c-1.07-1.105-1.906-2.758-2.522-4.955l-3.616-12.966
		c-0.423-1.522-0.772-2.447-1.046-2.768c-0.273-0.327-0.649-0.54-1.125-0.646c-0.48-0.104-1.277,0.007-2.396,0.328L102.73,28.953z"
		/>
	<path fill="#FFFFFF" d="M147.388,20.293l13.277,17.266l0.19-11.816c0.031-1.648-0.19-2.767-0.652-3.358
		c-0.636-0.792-1.715-1.189-3.244-1.189l0.009-0.745l9.082,0.146l-0.013,0.749c-1.163,0.13-1.948,0.311-2.352,0.54
		c-0.4,0.234-0.719,0.61-0.95,1.14c-0.232,0.531-0.356,1.441-0.378,2.74l-0.375,22.883l-0.685-0.013l-18.214-23.183l-0.283,17.47
		c-0.023,1.579,0.317,2.655,1.032,3.221s1.535,0.855,2.467,0.869l0.65,0.01l-0.009,0.75l-9.752-0.156l0.017-0.75
		c1.509,0.013,2.571-0.283,3.174-0.878c0.604-0.6,0.919-1.629,0.943-3.091l0.313-19.392l-0.576-0.74
		c-0.569-0.737-1.076-1.226-1.519-1.465c-0.439-0.237-1.08-0.374-1.919-0.416l0.015-0.747L147.388,20.293z"/>
	<path fill="#FFFFFF" d="M179.96,50.753l-0.155,0.737l-14.063-2.936l0.153-0.735l0.893,0.19c0.779,0.163,1.437,0.153,1.97-0.028
		c0.384-0.112,0.713-0.375,0.992-0.785c0.213-0.286,0.457-1.105,0.736-2.454l3.69-17.694c0.29-1.379,0.396-2.252,0.32-2.625
		c-0.073-0.374-0.304-0.736-0.692-1.086c-0.394-0.353-0.963-0.606-1.716-0.762l-0.893-0.187l0.15-0.731l14.067,2.93l-0.153,0.733
		l-0.894-0.184c-0.777-0.163-1.435-0.156-1.966,0.023c-0.387,0.111-0.724,0.374-1.013,0.784c-0.213,0.286-0.46,1.105-0.743,2.453
		l-3.687,17.695c-0.286,1.375-0.392,2.252-0.309,2.627c0.08,0.376,0.315,0.737,0.702,1.09c0.391,0.35,0.963,0.602,1.716,0.759
		L179.96,50.753z"/>
	<path fill="#FFFFFF" d="M217.569,37.232l-0.309,0.689c-0.976-0.255-2.007-0.122-3.083,0.391c-0.794,0.393-2.205,1.505-4.238,3.343
		l-17.097,15.422l-0.618-0.269l0.149-23.792c0.02-2.869-0.055-4.591-0.221-5.166c-0.169-0.576-0.716-1.132-1.646-1.672l0.302-0.686
		l12.063,5.292l-0.306,0.686l-0.403-0.179c-1.09-0.477-1.894-0.667-2.407-0.566c-0.367,0.059-0.631,0.265-0.787,0.626
		c-0.098,0.223-0.163,0.509-0.195,0.855c-0.036,0.346-0.059,1.309-0.072,2.88l-0.133,14.877l9.864-8.968
		c1.19-1.086,1.948-1.83,2.283-2.231c0.342-0.396,0.579-0.757,0.722-1.076c0.159-0.375,0.205-0.744,0.136-1.116
		c-0.078-0.371-0.273-0.715-0.585-1.033c-0.445-0.442-1.105-0.858-1.98-1.242l0.303-0.69L217.569,37.232z"/>
	<path fill="#FFFFFF" d="M230.588,48.789l-6.999,8.732l0.426,0.344c1.359,1.088,2.69,1.452,3.987,1.084
		c1.298-0.363,2.697-1.307,4.199-2.841l0.598,0.48l-8.996,11.233l-0.598-0.483c0.852-1.325,1.386-2.537,1.604-3.646
		c0.225-1.103,0.166-2.009-0.153-2.708c-0.325-0.7-0.996-1.456-2.017-2.279l-4.839,6.042c-0.95,1.182-1.477,1.945-1.59,2.288
		c-0.111,0.343-0.094,0.712,0.042,1.099c0.136,0.385,0.517,0.826,1.125,1.318l1.281,1.025c2.004,1.607,3.981,2.429,5.933,2.469
		c1.951,0.041,3.948-0.68,5.997-2.155l0.589,0.47l-6.43,6.041L206.209,62.45l0.468-0.587l0.716,0.574
		c0.621,0.496,1.21,0.789,1.766,0.869c0.391,0.073,0.807-0.01,1.242-0.252c0.316-0.158,0.908-0.778,1.77-1.852l11.308-14.107
		c0.778-0.973,1.227-1.585,1.353-1.852c0.188-0.454,0.222-0.896,0.098-1.322c-0.163-0.616-0.592-1.204-1.288-1.763l-0.715-0.569
		l0.472-0.585L241.35,55.39l-5.083,6.34l-0.602-0.478c0.937-1.799,1.402-3.254,1.385-4.371c-0.013-1.119-0.399-2.241-1.154-3.37
		c-0.442-0.664-1.47-1.646-3.096-2.947L230.588,48.789z"/>
	<path fill="#FFFFFF" d="M242.863,79.508l-6.206,4.568c-1.196,0.883-1.899,1.509-2.098,1.886c-0.201,0.376-0.256,0.817-0.172,1.323
		c0.091,0.505,0.501,1.265,1.249,2.278l-0.599,0.445l-8.346-11.329l0.602-0.447c0.758,1.022,1.363,1.649,1.822,1.872
		c0.458,0.226,0.894,0.297,1.304,0.22c0.417-0.077,1.22-0.557,2.417-1.438l14.366-10.578c1.196-0.883,1.896-1.51,2.101-1.885
		c0.198-0.372,0.254-0.816,0.169-1.322c-0.088-0.506-0.504-1.265-1.256-2.278l0.612-0.446l7.571,10.287
		c1.971,2.678,3.229,4.772,3.772,6.285c0.54,1.508,0.604,3.026,0.185,4.542c-0.416,1.515-1.293,2.767-2.634,3.756
		c-1.629,1.2-3.411,1.605-5.344,1.216c-1.229-0.253-2.511-0.933-3.841-2.033l-3.574,10.842c-0.455,1.408-0.695,2.346-0.719,2.816
		c-0.01,0.696,0.186,1.35,0.586,1.963l-0.599,0.446l-5.136-6.97l4.833-14.567L242.863,79.508z M253.719,71.516l-9.699,7.139
		l0.684,0.934c1.118,1.509,2.088,2.54,2.92,3.086c0.826,0.546,1.764,0.769,2.804,0.667c1.041-0.108,2.144-0.583,3.305-1.443
		c1.69-1.242,2.647-2.555,2.868-3.937c0.222-1.382-0.309-2.947-1.594-4.702L253.719,71.516z"/>
	<path fill="#FFFFFF" d="M276.355,108.259l-8.374,3.727l-0.319-0.766c1.972-1.245,3.308-2.847,4.011-4.8
		c0.695-1.955,0.705-3.756,0.019-5.4c-0.526-1.273-1.288-2.139-2.276-2.599c-0.988-0.456-1.932-0.503-2.813-0.134
		c-0.563,0.234-1.008,0.571-1.337,1.017c-0.429,0.606-0.77,1.424-1.012,2.465c-0.168,0.758-0.335,2.413-0.504,4.971
		c-0.221,3.578-0.764,6.155-1.629,7.731c-0.875,1.564-2.143,2.693-3.815,3.391c-2.12,0.881-4.286,0.814-6.504-0.205
		c-2.218-1.012-3.857-2.794-4.918-5.34c-0.332-0.797-0.565-1.585-0.699-2.364c-0.133-0.781-0.198-1.799-0.198-3.059
		c0-0.703-0.078-1.246-0.24-1.631c-0.137-0.327-0.403-0.62-0.804-0.876c-0.4-0.255-0.901-0.392-1.51-0.403l-0.285-0.691l9.581-3.991
		l0.29,0.689c-2.466,1.672-4.086,3.588-4.847,5.742c-0.765,2.155-0.768,4.135-0.017,5.947c0.582,1.395,1.429,2.352,2.534,2.865
		c1.105,0.512,2.166,0.56,3.174,0.14c0.599-0.251,1.112-0.654,1.542-1.204c0.429-0.552,0.761-1.261,0.995-2.117
		c0.234-0.86,0.416-2.282,0.54-4.268c0.179-2.784,0.451-4.843,0.832-6.188c0.378-1.341,0.943-2.491,1.704-3.442
		c0.755-0.953,1.73-1.676,2.918-2.169c2.02-0.843,4.049-0.817,6.092,0.073c2.042,0.896,3.528,2.471,4.468,4.73
		c0.345,0.821,0.579,1.66,0.7,2.517c0.094,0.649,0.117,1.479,0.062,2.492c-0.056,1.011-0.014,1.685,0.13,2.021
		c0.131,0.323,0.338,0.535,0.618,0.642c0.272,0.107,0.829,0.076,1.652-0.077L276.355,108.259z"/>
	<path fill="#FFFFFF" d="M255.049,135.591l-0.731,0.163l-3.143-14.021l0.735-0.163l0.201,0.889c0.173,0.779,0.449,1.373,0.832,1.786
		c0.261,0.302,0.638,0.496,1.13,0.579c0.347,0.073,1.193-0.041,2.536-0.34l17.644-3.95c1.37-0.305,2.209-0.572,2.518-0.793
		c0.313-0.223,0.547-0.582,0.703-1.082c0.155-0.496,0.155-1.122-0.013-1.875l-0.199-0.89l0.732-0.166l3.138,14.024l-0.731,0.162
		l-0.199-0.889c-0.176-0.779-0.454-1.376-0.835-1.787c-0.264-0.304-0.638-0.501-1.129-0.597c-0.354-0.076-1.2,0.036-2.546,0.34
		l-17.635,3.95c-1.372,0.306-2.211,0.573-2.523,0.798c-0.306,0.231-0.54,0.597-0.703,1.093c-0.155,0.499-0.149,1.125,0.021,1.878
		L255.049,135.591z"/>
	<path fill="#FFFFFF" d="M283.029,160.532l-7.441,0.187l-0.019-0.728c1.707-0.477,2.926-0.987,3.66-1.534
		c0.736-0.545,1.315-1.281,1.738-2.213c0.233-0.521,0.334-1.423,0.299-2.704l-0.053-2.049l-21.198,0.541
		c-1.405,0.036-2.282,0.133-2.625,0.299c-0.351,0.165-0.65,0.476-0.903,0.937c-0.251,0.456-0.368,1.078-0.345,1.86l0.019,0.914
		l-0.751,0.02l-0.36-14.39l0.751-0.018l0.02,0.914c0.019,0.795,0.182,1.432,0.475,1.911c0.202,0.35,0.527,0.617,0.995,0.81
		c0.326,0.137,1.184,0.194,2.563,0.156l21.196-0.54l-0.052-1.983c-0.049-1.853-0.473-3.185-1.278-4.004
		c-1.125-1.146-2.702-1.849-4.735-2.112l-0.021-0.77l7.438-0.185L283.029,160.532z"/>
	<path fill="#FFFFFF" d="M275.753,196.367l-0.732-0.174c0.092-0.909,0-1.647-0.282-2.215c-0.391-0.789-1.648-2.19-3.763-4.198
		l-8.291-8.117l-6.469-1.551c-1.378-0.327-2.25-0.463-2.62-0.4c-0.372,0.063-0.738,0.28-1.094,0.646
		c-0.361,0.364-0.625,0.903-0.79,1.613l-0.364,1.501l-0.729-0.181l3.598-14.997l0.728,0.174l-0.335,1.398
		c-0.189,0.789-0.202,1.445-0.032,1.971c0.098,0.387,0.349,0.733,0.751,1.035c0.279,0.222,1.093,0.49,2.43,0.813l5.362,1.286
		l12.961-3.54c2.56-0.711,4.099-1.271,4.628-1.687c0.518-0.417,0.892-1.049,1.109-1.901l0.731,0.176l-3.073,12.813l-0.729-0.173
		l0.137-0.577c0.183-0.775,0.201-1.341,0.053-1.704c-0.146-0.365-0.352-0.573-0.6-0.633c-0.469-0.114-1.788,0.125-3.947,0.719
		l-10.005,2.708l6.908,6.744c1.685,1.668,2.849,2.581,3.492,2.735c0.352,0.086,0.69-0.015,1.009-0.301
		c0.437-0.369,0.832-1.142,1.184-2.321l0.729,0.172L275.753,196.367z"/>
	<polygon fill="#FFFFFF" points="45.798,210.138 47.444,213.156 44.296,211.72 41.918,214.234 42.382,210.845 39.281,209.393 
		42.694,208.773 43.183,205.326 44.819,208.337 48.137,207.713 	"/>
	
		<text transform="matrix(0.5708 0.8211 -0.8211 0.5708 46.6484 221.4897)" fill="#FFFFFF" font-family="'TimesNewRomanPS-BoldMT'" font-size="11.9325">I</text>
	
		<text transform="matrix(0.615 0.7885 -0.7885 0.615 49.4722 225.6421)" fill="#FFFFFF" font-family="'TimesNewRomanPS-BoldMT'" font-size="11.9326">N</text>
	
		<text transform="matrix(0.6675 0.7446 -0.7446 0.6675 55.0249 232.728)" fill="#FFFFFF" font-family="'TimesNewRomanPS-BoldMT'" font-size="11.9328">T</text>
	
		<text transform="matrix(0.7149 0.6992 -0.6992 0.7149 60.5576 238.8828)" fill="#FFFFFF" font-family="'TimesNewRomanPS-BoldMT'" font-size="11.9324">E</text>
	
		<text transform="matrix(0.7628 0.6466 -0.6466 0.7628 66.5669 244.7666)" fill="#FFFFFF" font-family="'TimesNewRomanPS-BoldMT'" font-size="11.9327">G</text>
	
		<text transform="matrix(0.8085 0.5885 -0.5885 0.8085 73.9561 251.0259)" fill="#FFFFFF" font-family="'TimesNewRomanPS-BoldMT'" font-size="11.9327">R</text>
	
		<text transform="matrix(0.8396 0.5432 -0.5432 0.8396 81.1909 256.2427)" fill="#FFFFFF" font-family="'TimesNewRomanPS-BoldMT'" font-size="11.9327">I</text>
	
		<text transform="matrix(0.8669 0.4985 -0.4985 0.8669 85.3223 258.958)" fill="#FFFFFF" font-family="'TimesNewRomanPS-BoldMT'" font-size="11.9328">T</text>
	
		<text transform="matrix(0.8952 0.4456 -0.4456 0.8952 91.6216 262.5752)" fill="#FFFFFF" font-family="'TimesNewRomanPS-BoldMT'" font-size="11.933">A</text>
	
		<text transform="matrix(0.9218 0.3877 -0.3877 0.9218 99.6338 266.5483)" fill="#FFFFFF" font-family="'TimesNewRomanPS-BoldMT'" font-size="11.9328">S</text>
	<polygon fill="#FFFFFF" points="119.109,268.027 122.413,268.977 119.181,270.208 119.302,273.668 117.214,270.958 
		114.004,272.146 115.956,269.283 113.845,266.515 117.138,267.465 119.022,264.663 	"/>
	
		<text transform="matrix(0.9876 0.157 -0.157 0.9876 127.3789 275.3994)" fill="#FFFFFF" font-family="'TimesNewRomanPS-BoldMT'" font-size="11.9328">V</text>
	
		<text transform="matrix(0.9961 0.0888 -0.0888 0.9961 136.2705 276.8047)" fill="#FFFFFF" font-family="'TimesNewRomanPS-BoldMT'" font-size="11.9328">E</text>
	
		<text transform="matrix(0.9998 0.0208 -0.0208 0.9998 144.5708 277.4761)" fill="#FFFFFF" font-family="'TimesNewRomanPS-BoldMT'" font-size="11.9326">R</text>
	
		<text transform="matrix(0.9994 -0.0332 0.0332 0.9994 153.5317 277.627)" fill="#FFFFFF" font-family="'TimesNewRomanPS-BoldMT'" font-size="11.9326">I</text>
	
		<text transform="matrix(0.9964 -0.0849 0.0849 0.9964 158.4409 277.5039)" fill="#FFFFFF" font-family="'TimesNewRomanPS-BoldMT'" font-size="11.9328">T</text>
	
		<text transform="matrix(0.9895 -0.1443 0.1443 0.9895 165.6538 276.9224)" fill="#FFFFFF" font-family="'TimesNewRomanPS-BoldMT'" font-size="11.9327">A</text>
	
		<text transform="matrix(0.9784 -0.2068 0.2068 0.9784 174.4902 275.6113)" fill="#FFFFFF" font-family="'TimesNewRomanPS-BoldMT'" font-size="11.9326">S</text>
	<polygon fill="#FFFFFF" points="191.352,265.729 194.605,264.624 192.646,267.481 194.722,270.259 191.463,269.216 
		189.499,272.026 189.473,268.556 186.162,267.488 189.408,266.388 189.362,263.015 	"/>
	
		<text transform="matrix(0.8916 -0.4529 0.4529 0.8916 205.624 265.5537)" fill="#FFFFFF" font-family="'TimesNewRomanPS-BoldMT'" font-size="11.9326">S</text>
	
		<text transform="matrix(0.8611 -0.5085 0.5085 0.8611 211.8501 262.3735)" fill="#FFFFFF" font-family="'TimesNewRomanPS-BoldMT'" font-size="11.9328">A</text>
	
		<text transform="matrix(0.8256 -0.5642 0.5642 0.8256 219.582 257.8018)" fill="#FFFFFF" font-family="'TimesNewRomanPS-BoldMT'" font-size="11.9328">P</text>
	
		<text transform="matrix(0.7968 -0.6042 0.6042 0.7968 225.8398 253.4717)" fill="#FFFFFF" font-family="'TimesNewRomanPS-BoldMT'" font-size="11.9326">I</text>
	
		<text transform="matrix(0.7643 -0.6449 0.6449 0.7643 229.7915 250.5093)" fill="#FFFFFF" font-family="'TimesNewRomanPS-BoldMT'" font-size="11.9328">E</text>
	
		<text transform="matrix(0.7184 -0.6956 0.6956 0.7184 236.1489 245.1387)" fill="#FFFFFF" font-family="'TimesNewRomanPS-BoldMT'" font-size="11.9326">N</text>
	
		<text transform="matrix(0.6692 -0.7431 0.7431 0.6692 242.5942 238.8862)" fill="#FFFFFF" font-family="'TimesNewRomanPS-BoldMT'" font-size="11.9325">T</text>
	
		<text transform="matrix(0.6297 -0.7769 0.7769 0.6297 248.0864 232.71)" fill="#FFFFFF" font-family="'TimesNewRomanPS-BoldMT'" font-size="11.9327">I</text>
	
		<text transform="matrix(0.5861 -0.8102 0.8102 0.5861 251.2075 228.8613)" fill="#FFFFFF" font-family="'TimesNewRomanPS-BoldMT'" font-size="11.9327">A</text>
	<polygon fill="#FFFFFF" points="258.162,208.577 259.81,205.563 260.305,208.99 263.71,209.629 260.607,211.071 261.063,214.461 
		258.698,211.93 255.534,213.382 257.179,210.375 254.864,207.928 	"/>
	<line fill="none" stroke="#FFFFFF" stroke-width="3.1139" x1="176.372" y1="104.172" x2="122.156" y2="204.045"/>
	<line fill="none" stroke="#FFFFFF" stroke-width="3.1139" x1="164.7" y1="97.947" x2="113.598" y2="192.371"/>
	<path fill="#FFFFFF" d="M148.1,163.576c4.146,7.265,8.815,14.269,3.111,18.937c-5.708,4.669-23.345,11.414-21.53,19.457
		c1.818,8.043,18.676,16.341,20.754,17.381c2.075,1.039-14.739-12.612-8.562-20.494c7.519-9.6,12.708-9.079,17.897-15.823
		C167.624,172.823,148.1,163.576,148.1,163.576"/>
	<path fill="#FFFFFF" d="M158.214,166.69c7.261,6.485,9.858,14.269,2.854,20.752c-5.536,5.125-13.532,4.48-16.341,13.747
		c-2.599,8.56,6.483,16.603,8.562,17.643c2.071,1.039-6.438-7.164-0.264-15.044c7.524-9.598,15.689-9.628,19.716-17.122
		C180.265,172.655,158.214,166.69,158.214,166.69"/>
	<path fill="#FFFFFF" d="M177.151,182.254c0.779,6.487,2.075,12.97-4.672,17.901c-6.74,4.927-11.93,6.223-13.229,9.337
		c-1.296,3.111,0.779,12.969-1.814,10.115c-2.596-2.851-7.001-10.115-1.04-16.083c5.971-5.965,12.712-8.3,15.826-12.448
		C175.333,186.922,177.151,182.254,177.151,182.254"/>
	<rect x="162.561" y="133.742" fill="none" stroke="#FFFFFF" stroke-width="0.5195" width="41.768" height="15.307"/>
	<rect x="161.392" y="133.227" fill="none" stroke="#FFFFFF" stroke-width="0.5195" width="44.293" height="16.602"/>
	<path fill="#2B2867" d="M163.856,133.647c3.568-2.441,7.197-3.661,10.314-3.404c3.111,0.257,9.663,2.041,9.663,3.244
		c0,1.582,0.104,15.502,0.104,15.502s-5.813-3.404-10.222-3.15c-4.41,0.259-9.921,3.277-9.921,3.277L163.856,133.647z"/>
	<path fill="none" stroke="#FFFFFF" stroke-width="0.5195" d="M163.856,133.647c3.568-2.441,7.197-3.661,10.314-3.404
		c3.111,0.257,9.663,2.041,9.663,3.244c0,1.582,0.104,15.502,0.104,15.502s-5.813-3.404-10.222-3.15
		c-4.41,0.259-9.921,3.277-9.921,3.277L163.856,133.647z"/>
	<path fill="#2B2867" d="M203.483,133.647c-3.428-2.441-6.921-3.661-9.913-3.404c-2.993,0.257-9.286,2.041-9.286,3.244
		c0,1.582,0.062,15.499,0.062,15.499s5.425-3.4,9.667-3.146c4.234,0.259,9.529,3.277,9.529,3.277L203.483,133.647z"/>
	<path fill="none" stroke="#FFFFFF" stroke-width="0.5195" d="M203.483,133.647c-3.428-2.441-6.921-3.661-9.913-3.404
		c-2.993,0.257-9.286,2.041-9.286,3.244c0,1.582,0.062,15.499,0.062,15.499s5.425-3.4,9.667-3.146
		c4.234,0.259,9.529,3.277,9.529,3.277L203.483,133.647z"/>
	<path fill="none" stroke="#FFFFFF" stroke-width="0.5195" stroke-linecap="round" d="M165.868,149.632
		c2.268-1.036,5.901-2.334,8.236-2.334c2.335,0,7.652,1.168,9.272,2.142"/>
	<path fill="none" stroke="#FFFFFF" stroke-width="0.5195" stroke-linecap="round" d="M202.634,149.632
		c-2.266-1.036-5.896-2.334-8.234-2.334c-2.332,0-7.652,1.168-9.272,2.142"/>
	<line fill="none" stroke="#FFFFFF" stroke-width="1.0357" x1="89.545" y1="102.221" x2="89.545" y2="128.362"/>
	<line fill="none" stroke="#FFFFFF" stroke-width="1.0357" x1="93.714" y1="102.837" x2="93.714" y2="151.188"/>
	<line fill="none" stroke="#FFFFFF" stroke-width="1.0357" x1="98.258" y1="104.189" x2="98.258" y2="163.706"/>
	<line fill="none" stroke="#FFFFFF" stroke-width="1.0357" x1="102.796" y1="105.292" x2="102.796" y2="173.404"/>
	<line fill="none" stroke="#FFFFFF" stroke-width="1.0357" x1="107.217" y1="106.028" x2="107.217" y2="181.504"/>
	<line fill="none" stroke="#FFFFFF" stroke-width="1.0357" x1="111.513" y1="106.152" x2="111.513" y2="189.357"/>
	<line fill="none" stroke="#FFFFFF" stroke-width="1.0357" x1="116.175" y1="105.904" x2="116.175" y2="185.43"/>
	<line fill="none" stroke="#FFFFFF" stroke-width="1.0357" x1="121.085" y1="104.802" x2="121.085" y2="176.226"/>
	<line fill="none" stroke="#FFFFFF" stroke-width="1.0357" x1="126.236" y1="103.574" x2="126.236" y2="167.513"/>
	<line fill="none" stroke="#FFFFFF" stroke-width="1.0357" x1="130.413" y1="101.608" x2="130.413" y2="158.92"/>
	<line fill="none" stroke="#FFFFFF" stroke-width="1.0357" x1="135.076" y1="98.541" x2="135.076" y2="151.188"/>
	<line fill="none" stroke="#FFFFFF" stroke-width="1.0357" x1="139.862" y1="94.858" x2="139.862" y2="141.617"/>
	<line fill="none" stroke="#FFFFFF" stroke-width="1.0357" x1="144.77" y1="90.196" x2="144.77" y2="133.517"/>
	<line fill="none" stroke="#FFFFFF" stroke-width="1.0357" x1="149.559" y1="84.06" x2="149.559" y2="124.192"/>
	<line fill="none" stroke="#FFFFFF" stroke-width="1.0357" x1="154.223" y1="86.758" x2="154.223" y2="115.723"/>
	<line fill="none" stroke="#FFFFFF" stroke-width="1.0357" x1="159.13" y1="92.526" x2="159.13" y2="106.273"/>
	<path fill="none" stroke="#FFFFFF" stroke-width="3.1139" d="M149.656,233.618c-27.5-26.46-64.074-65.113-63.298-133.854
		c32.429,15.826,54.477-0.777,64.077-18.161c30.349,44.36,64.588,15.307,64.588,17.641
		C215.023,183.812,149.656,233.618,149.656,233.618z"/>
	<polygon fill="#FFFFFF" points="123.28,182.433 124.708,185.331 127.905,185.79 125.594,188.048 126.137,191.232 123.28,189.73 
		120.424,191.232 120.968,188.048 118.657,185.79 121.854,185.331 	"/>
	<polygon fill="#FFFFFF" points="140.923,149.575 142.348,152.469 145.546,152.936 143.231,155.187 143.778,158.371 
		140.923,156.866 138.063,158.371 138.61,155.187 136.297,152.936 139.491,152.469 	"/>
	<polygon fill="#FFFFFF" points="157.522,119.829 158.951,122.727 162.148,123.189 159.833,125.448 160.379,128.628 
		157.522,127.126 154.668,128.628 155.211,125.448 152.9,123.189 156.094,122.727 	"/>
	<line fill="none" stroke="#FFFFFF" stroke-width="1.0357" x1="149.787" y1="154.108" x2="204.521" y2="154.108"/>
	<line fill="none" stroke="#FFFFFF" stroke-width="1.0357" x1="147.318" y1="158.065" x2="203.741" y2="158.065"/>
	<path fill="#FFFFFF" d="M96.733,201.453c-1.036,1.814-2.591,0,0.264,4.149c2.854,4.147,0.516,4.411,4.149,6.482
		c3.63,2.081-1.035,4.672,2.594,4.93c3.63,0.261,5.968,3.631,10.374,5.189c4.41,1.556-0.35,5.596,4.153,5.71
		c4.5,0.105,4.67,4.925,8.56,3.109c3.89-1.818,7.783-3.373,1.818-5.965c-5.968-2.597-11.417-5.968-12.712-8.043
		c-1.299-2.077-2.854-0.519-7.524-4.93c-4.669-4.407-5.968-8.04-7.783-9.596C98.811,200.934,96.733,201.453,96.733,201.453"/>
	<path fill="#2B2867" d="M96.863,194.985c-1.366-2.86-3.883-4.789-4.776-4.322c-0.759,0.392-0.187,3.69,1.083,7.017
		c1.294,3.397,3.689,6.867,4.961,5.851C98.131,203.531,98.637,198.698,96.863,194.985"/>
	<path fill="none" stroke="#FFFFFF" stroke-width="0.5195" d="M96.863,194.985c-1.366-2.86-3.883-4.789-4.776-4.322
		c-0.759,0.392-0.187,3.69,1.083,7.017c1.294,3.397,3.689,6.867,4.961,5.851C98.131,203.531,98.637,198.698,96.863,194.985z"/>
	<path fill="#2B2867" d="M98.427,208.962c-2.73-0.405-5.431-0.232-5.774,0.705c-0.293,0.795,2.285,2.137,5.082,3.322
		c2.852,1.216,6.101,1.729,6.631-0.542C104.779,210.681,101.598,209.432,98.427,208.962"/>
	<path fill="none" stroke="#FFFFFF" stroke-width="0.5195" d="M98.427,208.962c-2.73-0.405-5.431-0.232-5.774,0.705
		c-0.293,0.795,2.285,2.137,5.082,3.322c2.852,1.216,6.101,1.729,6.631-0.542C104.779,210.681,101.598,209.432,98.427,208.962z"/>
	<path fill="#2B2867" d="M112.962,220.783c-2.608-0.899-5.295-1.227-5.809-0.369c-0.429,0.726,1.859,2.521,4.386,4.205
		c2.583,1.716,5.676,2.818,6.619,0.68C118.889,223.643,115.997,221.828,112.962,220.783"/>
	<path fill="none" stroke="#FFFFFF" stroke-width="0.5195" d="M112.962,220.783c-2.608-0.899-5.295-1.227-5.809-0.369
		c-0.429,0.726,1.859,2.521,4.386,4.205c2.583,1.716,5.676,2.818,6.619,0.68C118.889,223.643,115.997,221.828,112.962,220.783z"/>
	<path fill="#2B2867" d="M116.931,225.832c-2.537,0.146-4.986,0.849-5.189,1.818c-0.175,0.823,2.338,1.611,5.03,2.208
		c2.747,0.602,5.774,0.458,5.994-1.839C122.937,226.234,119.89,225.658,116.931,225.832"/>
	<path fill="none" stroke="#FFFFFF" stroke-width="0.5195" d="M116.931,225.832c-2.537,0.146-4.986,0.849-5.189,1.818
		c-0.175,0.823,2.338,1.611,5.03,2.208c2.747,0.602,5.774,0.458,5.994-1.839C122.937,226.234,119.89,225.658,116.931,225.832z"/>
	<path fill="#2B2867" d="M124.285,229.016c-2.787,0.236-5.491,1.098-5.742,2.213c-0.213,0.95,2.525,1.782,5.466,2.395
		c2.994,0.62,6.317,0.379,6.616-2.25C130.859,229.325,127.529,228.746,124.285,229.016"/>
	<path fill="none" stroke="#FFFFFF" stroke-width="0.5795" d="M124.285,229.016c-2.787,0.236-5.491,1.098-5.742,2.213
		c-0.213,0.95,2.525,1.782,5.466,2.395c2.994,0.62,6.317,0.379,6.616-2.25C130.859,229.325,127.529,228.746,124.285,229.016z"/>
	<path fill="#2B2867" d="M103.447,215.07c-2.757,0.068-5.389,0.707-5.564,1.687c-0.154,0.833,2.62,1.712,5.581,2.4
		c3.017,0.701,6.305,0.647,6.438-1.682C110.004,215.667,106.657,214.984,103.447,215.07"/>
	<path fill="none" stroke="#FFFFFF" stroke-width="0.5195" d="M103.447,215.07c-2.757,0.068-5.389,0.707-5.564,1.687
		c-0.154,0.833,2.62,1.712,5.581,2.4c3.017,0.701,6.305,0.647,6.438-1.682C110.004,215.667,106.657,214.984,103.447,215.07z"/>
	<path fill="#2B2867" d="M94.048,202.155c-2.587-0.955-5.265-1.335-5.793-0.493c-0.451,0.72,1.805,2.561,4.296,4.296
		c2.543,1.77,5.822,3.018,6.604,0.82C99.403,206.076,97.063,203.264,94.048,202.155"/>
	<path fill="none" stroke="#FFFFFF" stroke-width="0.5195" d="M94.048,202.155c-2.587-0.955-5.265-1.335-5.793-0.493
		c-0.451,0.72,1.805,2.561,4.296,4.296c2.543,1.77,5.822,3.018,6.604,0.82C99.403,206.076,97.063,203.264,94.048,202.155z"/>
	<path fill="#2B2867" d="M107.576,207.201c-1.368-2.47-3.178-4.552-4.125-4.239c-0.804,0.264-0.267,3.207,0.528,6.229
		c0.813,3.083,2.415,6.044,4.534,5.034C110.154,213.449,109.168,210.074,107.576,207.201"/>
	<path fill="none" stroke="#FFFFFF" stroke-width="0.5195" d="M107.576,207.201c-1.368-2.47-3.178-4.552-4.125-4.239
		c-0.804,0.264-0.267,3.207,0.528,6.229c0.813,3.083,2.415,6.044,4.534,5.034C110.154,213.449,109.168,210.074,107.576,207.201z"/>
	<path fill="#2B2867" d="M102.901,201.283c-0.839-2.698-2.186-5.103-3.178-4.992c-0.842,0.096-0.912,3.086-0.749,6.204
		c0.167,3.184,1.133,6.408,3.406,5.859C104.149,207.921,103.874,204.42,102.901,201.283"/>
	<path fill="none" stroke="#FFFFFF" stroke-width="0.5195" d="M102.901,201.283c-0.839-2.698-2.186-5.103-3.178-4.992
		c-0.842,0.096-0.912,3.086-0.749,6.204c0.167,3.184,1.133,6.408,3.406,5.859C104.149,207.921,103.874,204.42,102.901,201.283z"/>
	<path fill="#2B2867" d="M117.461,210.359c-1.525-0.524-5.532,10.999-1.582,11.832C118.997,222.848,119.385,211.015,117.461,210.359
		"/>
	<path fill="none" stroke="#FFFFFF" stroke-width="0.5195" d="M117.461,210.359c-1.525-0.524-5.532,10.999-1.582,11.832
		C118.997,222.848,119.385,211.015,117.461,210.359z"/>
	<path fill="#2B2867" d="M112.609,211.208c-1.37-2.469-3.178-4.55-4.127-4.236c-0.802,0.264-0.262,3.207,0.53,6.229
		c0.816,3.077,2.377,5.95,4.532,5.034C114.917,217.649,114.204,214.082,112.609,211.208"/>
	<path fill="none" stroke="#FFFFFF" stroke-width="0.5195" d="M112.609,211.208c-1.37-2.469-3.178-4.55-4.127-4.236
		c-0.802,0.264-0.262,3.207,0.53,6.229c0.816,3.077,2.377,5.95,4.532,5.034C114.917,217.649,114.204,214.082,112.609,211.208z"/>
	<path fill="#2B2867" d="M119.29,215.063c-1.605,0.164-1.573,11.42,3.483,11.42C128.022,226.484,121.317,214.862,119.29,215.063"/>
	<path fill="none" stroke="#FFFFFF" stroke-width="0.5195" d="M119.29,215.063c-1.605,0.164-1.573,11.42,3.483,11.42
		C128.022,226.484,121.317,214.862,119.29,215.063z"/>
	<path fill="#2B2867" d="M123.629,216.827c-1.662,0.399-1.226,13.566,4.135,11.637C130.942,227.316,125.731,216.315,123.629,216.827
		"/>
	<path fill="none" stroke="#FFFFFF" stroke-width="0.5195" d="M123.629,216.827c-1.662,0.399-1.226,13.566,4.135,11.637
		C130.942,227.316,125.731,216.315,123.629,216.827z"/>
	<path fill="#2B2867" d="M128.018,219.684c-1.665,0.403-1.229,13.571,4.132,11.64C135.332,230.177,130.117,219.174,128.018,219.684"
		/>
	<path fill="none" stroke="#FFFFFF" stroke-width="0.5195" d="M128.018,219.684c-1.665,0.403-1.229,13.571,4.132,11.64
		C135.332,230.177,130.117,219.174,128.018,219.684z"/>
	<path fill="#FFFFFF" d="M204.037,201.453c1.041,1.814,2.595,0-0.26,4.149c-2.849,4.147-0.52,4.411-4.144,6.482
		c-3.636,2.081,1.034,4.672-2.599,4.93c-3.633,0.261-5.965,3.631-10.378,5.189c-4.41,1.556,0.352,5.596-4.146,5.71
		c-4.503,0.105-4.672,4.925-8.562,3.109c-3.893-1.818-7.783-3.373-1.815-5.965c5.965-2.597,11.414-5.968,12.708-8.043
		c1.301-2.077,2.855-0.519,7.523-4.93c4.67-4.407,5.964-8.04,7.782-9.596C201.961,200.934,204.037,201.453,204.037,201.453"/>
	<path fill="#2B2867" d="M203.913,194.985c1.366-2.86,3.883-4.789,4.774-4.322c0.755,0.392,0.186,3.69-1.083,7.017
		c-1.298,3.397-3.691,6.867-4.96,5.851C202.645,203.531,202.137,198.698,203.913,194.985"/>
	<path fill="none" stroke="#FFFFFF" stroke-width="0.5195" d="M203.913,194.985c1.366-2.86,3.883-4.789,4.774-4.322
		c0.755,0.392,0.186,3.69-1.083,7.017c-1.298,3.397-3.691,6.867-4.96,5.851C202.645,203.531,202.137,198.698,203.913,194.985z"/>
	<path fill="#2B2867" d="M202.349,208.962c2.729-0.405,5.428-0.232,5.772,0.705c0.296,0.795-2.289,2.137-5.083,3.322
		c-2.852,1.216-6.098,1.729-6.631-0.542C195.997,210.681,199.171,209.432,202.349,208.962"/>
	<path fill="none" stroke="#FFFFFF" stroke-width="0.5195" d="M202.349,208.962c2.729-0.405,5.428-0.232,5.772,0.705
		c0.296,0.795-2.289,2.137-5.083,3.322c-2.852,1.216-6.098,1.729-6.631-0.542C195.997,210.681,199.171,209.432,202.349,208.962z"/>
	<path fill="#2B2867" d="M187.814,220.783c2.605-0.899,5.295-1.227,5.802-0.369c0.436,0.726-1.854,2.521-4.384,4.205
		c-2.579,1.716-5.672,2.818-6.618,0.68C181.883,223.643,184.783,221.828,187.814,220.783"/>
	<path fill="none" stroke="#FFFFFF" stroke-width="0.5195" d="M187.814,220.783c2.605-0.899,5.295-1.227,5.802-0.369
		c0.436,0.726-1.854,2.521-4.384,4.205c-2.579,1.716-5.672,2.818-6.618,0.68C181.883,223.643,184.783,221.828,187.814,220.783z"/>
	<path fill="#2B2867" d="M183.839,225.832c2.54,0.146,4.989,0.849,5.194,1.818c0.172,0.823-2.338,1.611-5.035,2.208
		c-2.744,0.602-5.771,0.458-5.992-1.839C177.834,226.234,180.885,225.658,183.839,225.832"/>
	<path fill="none" stroke="#FFFFFF" stroke-width="0.5195" d="M183.839,225.832c2.54,0.146,4.989,0.849,5.194,1.818
		c0.172,0.823-2.338,1.611-5.035,2.208c-2.744,0.602-5.771,0.458-5.992-1.839C177.834,226.234,180.885,225.658,183.839,225.832z"/>
	<path fill="#2B2867" d="M176.488,229.016c2.792,0.236,5.497,1.098,5.738,2.213c0.216,0.95-2.52,1.782-5.454,2.395
		c-3.002,0.62-6.326,0.379-6.625-2.25C169.915,229.325,173.249,228.746,176.488,229.016"/>
	<path fill="none" stroke="#FFFFFF" stroke-width="0.5795" d="M176.488,229.016c2.792,0.236,5.497,1.098,5.738,2.213
		c0.216,0.95-2.52,1.782-5.454,2.395c-3.002,0.62-6.326,0.379-6.625-2.25C169.915,229.325,173.249,228.746,176.488,229.016z"/>
	<path fill="#2B2867" d="M197.327,215.07c2.754,0.068,5.389,0.707,5.564,1.687c0.149,0.833-2.622,1.712-5.578,2.4
		c-3.018,0.701-6.306,0.647-6.437-1.682C190.773,215.667,194.117,214.984,197.327,215.07"/>
	<path fill="none" stroke="#FFFFFF" stroke-width="0.5195" d="M197.327,215.07c2.754,0.068,5.389,0.707,5.564,1.687
		c0.149,0.833-2.622,1.712-5.578,2.4c-3.018,0.701-6.306,0.647-6.437-1.682C190.773,215.667,194.117,214.984,197.327,215.07z"/>
	<path fill="#2B2867" d="M206.723,202.155c2.589-0.955,5.269-1.335,5.795-0.493c0.449,0.72-1.802,2.561-4.293,4.296
		c-2.543,1.77-5.822,3.018-6.605,0.82C201.373,206.076,203.714,203.264,206.723,202.155"/>
	<path fill="none" stroke="#FFFFFF" stroke-width="0.5195" d="M206.723,202.155c2.589-0.955,5.269-1.335,5.795-0.493
		c0.449,0.72-1.802,2.561-4.293,4.296c-2.543,1.77-5.822,3.018-6.605,0.82C201.373,206.076,203.714,203.264,206.723,202.155z"/>
	<path fill="#2B2867" d="M193.197,207.201c1.372-2.47,3.181-4.552,4.127-4.239c0.807,0.264,0.267,3.207-0.53,6.229
		c-0.813,3.083-2.417,6.044-4.531,5.034C190.618,213.449,191.606,210.074,193.197,207.201"/>
	<path fill="none" stroke="#FFFFFF" stroke-width="0.5195" d="M193.197,207.201c1.372-2.47,3.181-4.552,4.127-4.239
		c0.807,0.264,0.267,3.207-0.53,6.229c-0.813,3.083-2.417,6.044-4.531,5.034C190.618,213.449,191.606,210.074,193.197,207.201z"/>
	<path fill="#2B2867" d="M197.876,201.283c0.833-2.698,2.179-5.103,3.168-4.992c0.845,0.096,0.917,3.086,0.758,6.204
		c-0.166,3.184-1.135,6.408-3.412,5.859C196.625,207.921,196.901,204.42,197.876,201.283"/>
	<path fill="none" stroke="#FFFFFF" stroke-width="0.5195" d="M197.876,201.283c0.833-2.698,2.179-5.103,3.168-4.992
		c0.845,0.096,0.917,3.086,0.758,6.204c-0.166,3.184-1.135,6.408-3.412,5.859C196.625,207.921,196.901,204.42,197.876,201.283z"/>
	<path fill="#2B2867" d="M183.313,210.359c1.525-0.524,5.533,10.999,1.581,11.832C181.777,222.848,181.387,211.015,183.313,210.359"
		/>
	<path fill="none" stroke="#FFFFFF" stroke-width="0.5195" d="M183.313,210.359c1.525-0.524,5.533,10.999,1.581,11.832
		C181.777,222.848,181.387,211.015,183.313,210.359z"/>
	<path fill="#2B2867" d="M188.166,211.208c1.369-2.469,3.177-4.55,4.124-4.236c0.806,0.264,0.267,3.207-0.53,6.229
		c-0.806,3.077-2.377,5.95-4.53,5.034C185.853,217.649,186.572,214.082,188.166,211.208"/>
	<path fill="none" stroke="#FFFFFF" stroke-width="0.5195" d="M188.166,211.208c1.369-2.469,3.177-4.55,4.124-4.236
		c0.806,0.264,0.267,3.207-0.53,6.229c-0.806,3.077-2.377,5.95-4.53,5.034C185.853,217.649,186.572,214.082,188.166,211.208z"/>
	<path fill="#2B2867" d="M181.483,215.063c1.606,0.164,1.576,11.42-3.486,11.42C172.756,226.484,179.459,214.862,181.483,215.063"/>
	<path fill="none" stroke="#FFFFFF" stroke-width="0.5195" d="M181.483,215.063c1.606,0.164,1.576,11.42-3.486,11.42
		C172.756,226.484,179.459,214.862,181.483,215.063z"/>
	<path fill="#2B2867" d="M177.145,216.827c1.665,0.399,1.23,13.566-4.133,11.637C169.832,227.316,175.047,216.315,177.145,216.827"
		/>
	<path fill="none" stroke="#FFFFFF" stroke-width="0.5195" d="M177.145,216.827c1.665,0.399,1.23,13.566-4.133,11.637
		C169.832,227.316,175.047,216.315,177.145,216.827z"/>
	<path fill="#2B2867" d="M172.759,219.684c1.662,0.403,1.225,13.571-4.133,11.64C165.444,230.177,170.66,219.174,172.759,219.684"/>
	<path fill="none" stroke="#FFFFFF" stroke-width="0.5195" d="M172.759,219.684c1.662,0.403,1.225,13.571-4.133,11.64
		C165.444,230.177,170.66,219.174,172.759,219.684z"/>
</g>
</svg>
